<?xml version="1.0" encoding="utf-8" standalone="no"?>
<!DOCTYPE svg PUBLIC "-//W3C//DTD SVG 1.1//EN"
  "http://www.w3.org/Graphics/SVG/1.1/DTD/svg11.dtd">
<svg xmlns:xlink="http://www.w3.org/1999/xlink" width="936pt" height="324pt" viewBox="0 0 936 324" xmlns="http://www.w3.org/2000/svg" version="1.1">
 <metadata>
  <rdf:RDF xmlns:dc="http://purl.org/dc/elements/1.1/" xmlns:cc="http://creativecommons.org/ns#" xmlns:rdf="http://www.w3.org/1999/02/22-rdf-syntax-ns#">
   <cc:Work>
    <dc:type rdf:resource="http://purl.org/dc/dcmitype/StillImage"/>
    <dc:date>2026-09-28T20:01:52.584635</dc:date>
    <dc:format>image/svg+xml</dc:format>
    <dc:creator>
     <cc:Agent>
      <dc:title>Matplotlib v3.9.2, https://matplotlib.org/</dc:title>
     </cc:Agent>
    </dc:creator>
   </cc:Work>
  </rdf:RDF>
 </metadata>
 <defs>
  <style type="text/css">*{stroke-linejoin: round; stroke-linecap: butt}</style>
 </defs>
 <g id="figure_1">
  <g id="patch_1">
   <path d="M 0 324 
L 936 324 
L 936 0 
L 0 0 
z
" style="fill: #ffffff"/>
  </g>
  <g id="axes_1">
   <g id="patch_2">
    <path d="M 38.27 282.04 
L 457.83 282.04 
L 457.83 36.36 
L 38.27 36.36 
z
" style="fill: #ffffff"/>
   </g>
   <g id="matplotlib.axis_1">
    <g id="xtick_1">
     <g id="line2d_1">
      <path d="M 50.983939 282.04 
L 50.983939 36.36 
" clip-path="url(#pdb8fb2e3b4)" style="fill: none; stroke: #b0b0b0; stroke-opacity: 0.2; stroke-width: 0.8; stroke-linecap: square"/>
     </g>
     <g id="line2d_2">
      <defs>
       <path id="m9b4858b2f2" d="M 0 0 
L 0 3.5 
" style="stroke: #000000; stroke-width: 0.8"/>
      </defs>
      <g>
       <use xlink:href="#m9b4858b2f2" x="50.983939" y="282.04" style="stroke: #000000; stroke-width: 0.8"/>
      </g>
     </g>
     <g id="text_1">
      <!-- 0 -->
      <g transform="translate(47.802689 296.638438) scale(0.1 -0.1)">
       <defs>
        <path id="DejaVuSans-30" d="M 2034 4250 
Q 1547 4250 1301 3770 
Q 1056 3291 1056 2328 
Q 1056 1369 1301 889 
Q 1547 409 2034 409 
Q 2525 409 2770 889 
Q 3016 1369 3016 2328 
Q 3016 3291 2770 3770 
Q 2525 4250 2034 4250 
z
M 2034 4750 
Q 2819 4750 3233 4129 
Q 3647 3509 3647 2328 
Q 3647 1150 3233 529 
Q 2819 -91 2034 -91 
Q 1250 -91 836 529 
Q 422 1150 422 2328 
Q 422 3509 836 4129 
Q 1250 4750 2034 4750 
z
" transform="scale(0.015625)"/>
       </defs>
       <use xlink:href="#DejaVuSans-30"/>
      </g>
     </g>
    </g>
    <g id="xtick_2">
     <g id="line2d_3">
      <path d="M 114.553636 282.04 
L 114.553636 36.36 
" clip-path="url(#pdb8fb2e3b4)" style="fill: none; stroke: #b0b0b0; stroke-opacity: 0.2; stroke-width: 0.8; stroke-linecap: square"/>
     </g>
     <g id="line2d_4">
      <g>
       <use xlink:href="#m9b4858b2f2" x="114.553636" y="282.04" style="stroke: #000000; stroke-width: 0.8"/>
      </g>
     </g>
     <g id="text_2">
      <!-- 10 -->
      <g transform="translate(108.191136 296.638438) scale(0.1 -0.1)">
       <defs>
        <path id="DejaVuSans-31" d="M 794 531 
L 1825 531 
L 1825 4091 
L 703 3866 
L 703 4441 
L 1819 4666 
L 2450 4666 
L 2450 531 
L 3481 531 
L 3481 0 
L 794 0 
L 794 531 
z
" transform="scale(0.015625)"/>
       </defs>
       <use xlink:href="#DejaVuSans-31"/>
       <use xlink:href="#DejaVuSans-30" x="63.623047"/>
      </g>
     </g>
    </g>
    <g id="xtick_3">
     <g id="line2d_5">
      <path d="M 178.123333 282.04 
L 178.123333 36.36 
" clip-path="url(#pdb8fb2e3b4)" style="fill: none; stroke: #b0b0b0; stroke-opacity: 0.2; stroke-width: 0.8; stroke-linecap: square"/>
     </g>
     <g id="line2d_6">
      <g>
       <use xlink:href="#m9b4858b2f2" x="178.123333" y="282.04" style="stroke: #000000; stroke-width: 0.8"/>
      </g>
     </g>
     <g id="text_3">
      <!-- 20 -->
      <g transform="translate(171.760833 296.638438) scale(0.1 -0.1)">
       <defs>
        <path id="DejaVuSans-32" d="M 1228 531 
L 3431 531 
L 3431 0 
L 469 0 
L 469 531 
Q 828 903 1448 1529 
Q 2069 2156 2228 2338 
Q 2531 2678 2651 2914 
Q 2772 3150 2772 3378 
Q 2772 3750 2511 3984 
Q 2250 4219 1831 4219 
Q 1534 4219 1204 4116 
Q 875 4013 500 3803 
L 500 4441 
Q 881 4594 1212 4672 
Q 1544 4750 1819 4750 
Q 2544 4750 2975 4387 
Q 3406 4025 3406 3419 
Q 3406 3131 3298 2873 
Q 3191 2616 2906 2266 
Q 2828 2175 2409 1742 
Q 1991 1309 1228 531 
z
" transform="scale(0.015625)"/>
       </defs>
       <use xlink:href="#DejaVuSans-32"/>
       <use xlink:href="#DejaVuSans-30" x="63.623047"/>
      </g>
     </g>
    </g>
    <g id="xtick_4">
     <g id="line2d_7">
      <path d="M 241.69303 282.04 
L 241.69303 36.36 
" clip-path="url(#pdb8fb2e3b4)" style="fill: none; stroke: #b0b0b0; stroke-opacity: 0.2; stroke-width: 0.8; stroke-linecap: square"/>
     </g>
     <g id="line2d_8">
      <g>
       <use xlink:href="#m9b4858b2f2" x="241.69303" y="282.04" style="stroke: #000000; stroke-width: 0.8"/>
      </g>
     </g>
     <g id="text_4">
      <!-- 30 -->
      <g transform="translate(235.33053 296.638438) scale(0.1 -0.1)">
       <defs>
        <path id="DejaVuSans-33" d="M 2597 2516 
Q 3050 2419 3304 2112 
Q 3559 1806 3559 1356 
Q 3559 666 3084 287 
Q 2609 -91 1734 -91 
Q 1441 -91 1130 -33 
Q 819 25 488 141 
L 488 750 
Q 750 597 1062 519 
Q 1375 441 1716 441 
Q 2309 441 2620 675 
Q 2931 909 2931 1356 
Q 2931 1769 2642 2001 
Q 2353 2234 1838 2234 
L 1294 2234 
L 1294 2753 
L 1863 2753 
Q 2328 2753 2575 2939 
Q 2822 3125 2822 3475 
Q 2822 3834 2567 4026 
Q 2313 4219 1838 4219 
Q 1578 4219 1281 4162 
Q 984 4106 628 3988 
L 628 4550 
Q 988 4650 1302 4700 
Q 1616 4750 1894 4750 
Q 2613 4750 3031 4423 
Q 3450 4097 3450 3541 
Q 3450 3153 3228 2886 
Q 3006 2619 2597 2516 
z
" transform="scale(0.015625)"/>
       </defs>
       <use xlink:href="#DejaVuSans-33"/>
       <use xlink:href="#DejaVuSans-30" x="63.623047"/>
      </g>
     </g>
    </g>
    <g id="xtick_5">
     <g id="line2d_9">
      <path d="M 305.262727 282.04 
L 305.262727 36.36 
" clip-path="url(#pdb8fb2e3b4)" style="fill: none; stroke: #b0b0b0; stroke-opacity: 0.2; stroke-width: 0.8; stroke-linecap: square"/>
     </g>
     <g id="line2d_10">
      <g>
       <use xlink:href="#m9b4858b2f2" x="305.262727" y="282.04" style="stroke: #000000; stroke-width: 0.8"/>
      </g>
     </g>
     <g id="text_5">
      <!-- 40 -->
      <g transform="translate(298.900227 296.638438) scale(0.1 -0.1)">
       <defs>
        <path id="DejaVuSans-34" d="M 2419 4116 
L 825 1625 
L 2419 1625 
L 2419 4116 
z
M 2253 4666 
L 3047 4666 
L 3047 1625 
L 3713 1625 
L 3713 1100 
L 3047 1100 
L 3047 0 
L 2419 0 
L 2419 1100 
L 313 1100 
L 313 1709 
L 2253 4666 
z
" transform="scale(0.015625)"/>
       </defs>
       <use xlink:href="#DejaVuSans-34"/>
       <use xlink:href="#DejaVuSans-30" x="63.623047"/>
      </g>
     </g>
    </g>
    <g id="xtick_6">
     <g id="line2d_11">
      <path d="M 368.832424 282.04 
L 368.832424 36.36 
" clip-path="url(#pdb8fb2e3b4)" style="fill: none; stroke: #b0b0b0; stroke-opacity: 0.2; stroke-width: 0.8; stroke-linecap: square"/>
     </g>
     <g id="line2d_12">
      <g>
       <use xlink:href="#m9b4858b2f2" x="368.832424" y="282.04" style="stroke: #000000; stroke-width: 0.8"/>
      </g>
     </g>
     <g id="text_6">
      <!-- 50 -->
      <g transform="translate(362.469924 296.638438) scale(0.1 -0.1)">
       <defs>
        <path id="DejaVuSans-35" d="M 691 4666 
L 3169 4666 
L 3169 4134 
L 1269 4134 
L 1269 2991 
Q 1406 3038 1543 3061 
Q 1681 3084 1819 3084 
Q 2600 3084 3056 2656 
Q 3513 2228 3513 1497 
Q 3513 744 3044 326 
Q 2575 -91 1722 -91 
Q 1428 -91 1123 -41 
Q 819 9 494 109 
L 494 744 
Q 775 591 1075 516 
Q 1375 441 1709 441 
Q 2250 441 2565 725 
Q 2881 1009 2881 1497 
Q 2881 1984 2565 2268 
Q 2250 2553 1709 2553 
Q 1456 2553 1204 2497 
Q 953 2441 691 2322 
L 691 4666 
z
" transform="scale(0.015625)"/>
       </defs>
       <use xlink:href="#DejaVuSans-35"/>
       <use xlink:href="#DejaVuSans-30" x="63.623047"/>
      </g>
     </g>
    </g>
    <g id="xtick_7">
     <g id="line2d_13">
      <path d="M 432.402121 282.04 
L 432.402121 36.36 
" clip-path="url(#pdb8fb2e3b4)" style="fill: none; stroke: #b0b0b0; stroke-opacity: 0.2; stroke-width: 0.8; stroke-linecap: square"/>
     </g>
     <g id="line2d_14">
      <g>
       <use xlink:href="#m9b4858b2f2" x="432.402121" y="282.04" style="stroke: #000000; stroke-width: 0.8"/>
      </g>
     </g>
     <g id="text_7">
      <!-- 60 -->
      <g transform="translate(426.039621 296.638438) scale(0.1 -0.1)">
       <defs>
        <path id="DejaVuSans-36" d="M 2113 2584 
Q 1688 2584 1439 2293 
Q 1191 2003 1191 1497 
Q 1191 994 1439 701 
Q 1688 409 2113 409 
Q 2538 409 2786 701 
Q 3034 994 3034 1497 
Q 3034 2003 2786 2293 
Q 2538 2584 2113 2584 
z
M 3366 4563 
L 3366 3988 
Q 3128 4100 2886 4159 
Q 2644 4219 2406 4219 
Q 1781 4219 1451 3797 
Q 1122 3375 1075 2522 
Q 1259 2794 1537 2939 
Q 1816 3084 2150 3084 
Q 2853 3084 3261 2657 
Q 3669 2231 3669 1497 
Q 3669 778 3244 343 
Q 2819 -91 2113 -91 
Q 1303 -91 875 529 
Q 447 1150 447 2328 
Q 447 3434 972 4092 
Q 1497 4750 2381 4750 
Q 2619 4750 2861 4703 
Q 3103 4656 3366 4563 
z
" transform="scale(0.015625)"/>
       </defs>
       <use xlink:href="#DejaVuSans-36"/>
       <use xlink:href="#DejaVuSans-30" x="63.623047"/>
      </g>
     </g>
    </g>
    <g id="text_8">
     <!-- Overall epoch (warm-up first) -->
     <g transform="translate(174.375781 310.316563) scale(0.1 -0.1)">
      <defs>
       <path id="DejaVuSans-4f" d="M 2522 4238 
Q 1834 4238 1429 3725 
Q 1025 3213 1025 2328 
Q 1025 1447 1429 934 
Q 1834 422 2522 422 
Q 3209 422 3611 934 
Q 4013 1447 4013 2328 
Q 4013 3213 3611 3725 
Q 3209 4238 2522 4238 
z
M 2522 4750 
Q 3503 4750 4090 4092 
Q 4678 3434 4678 2328 
Q 4678 1225 4090 567 
Q 3503 -91 2522 -91 
Q 1538 -91 948 565 
Q 359 1222 359 2328 
Q 359 3434 948 4092 
Q 1538 4750 2522 4750 
z
" transform="scale(0.015625)"/>
       <path id="DejaVuSans-76" d="M 191 3500 
L 800 3500 
L 1894 563 
L 2988 3500 
L 3597 3500 
L 2284 0 
L 1503 0 
L 191 3500 
z
" transform="scale(0.015625)"/>
       <path id="DejaVuSans-65" d="M 3597 1894 
L 3597 1613 
L 953 1613 
Q 991 1019 1311 708 
Q 1631 397 2203 397 
Q 2534 397 2845 478 
Q 3156 559 3463 722 
L 3463 178 
Q 3153 47 2828 -22 
Q 2503 -91 2169 -91 
Q 1331 -91 842 396 
Q 353 884 353 1716 
Q 353 2575 817 3079 
Q 1281 3584 2069 3584 
Q 2775 3584 3186 3129 
Q 3597 2675 3597 1894 
z
M 3022 2063 
Q 3016 2534 2758 2815 
Q 2500 3097 2075 3097 
Q 1594 3097 1305 2825 
Q 1016 2553 972 2059 
L 3022 2063 
z
" transform="scale(0.015625)"/>
       <path id="DejaVuSans-72" d="M 2631 2963 
Q 2534 3019 2420 3045 
Q 2306 3072 2169 3072 
Q 1681 3072 1420 2755 
Q 1159 2438 1159 1844 
L 1159 0 
L 581 0 
L 581 3500 
L 1159 3500 
L 1159 2956 
Q 1341 3275 1631 3429 
Q 1922 3584 2338 3584 
Q 2397 3584 2469 3576 
Q 2541 3569 2628 3553 
L 2631 2963 
z
" transform="scale(0.015625)"/>
       <path id="DejaVuSans-61" d="M 2194 1759 
Q 1497 1759 1228 1600 
Q 959 1441 959 1056 
Q 959 750 1161 570 
Q 1363 391 1709 391 
Q 2188 391 2477 730 
Q 2766 1069 2766 1631 
L 2766 1759 
L 2194 1759 
z
M 3341 1997 
L 3341 0 
L 2766 0 
L 2766 531 
Q 2569 213 2275 61 
Q 1981 -91 1556 -91 
Q 1019 -91 701 211 
Q 384 513 384 1019 
Q 384 1609 779 1909 
Q 1175 2209 1959 2209 
L 2766 2209 
L 2766 2266 
Q 2766 2663 2505 2880 
Q 2244 3097 1772 3097 
Q 1472 3097 1187 3025 
Q 903 2953 641 2809 
L 641 3341 
Q 956 3463 1253 3523 
Q 1550 3584 1831 3584 
Q 2591 3584 2966 3190 
Q 3341 2797 3341 1997 
z
" transform="scale(0.015625)"/>
       <path id="DejaVuSans-6c" d="M 603 4863 
L 1178 4863 
L 1178 0 
L 603 0 
L 603 4863 
z
" transform="scale(0.015625)"/>
       <path id="DejaVuSans-20" transform="scale(0.015625)"/>
       <path id="DejaVuSans-70" d="M 1159 525 
L 1159 -1331 
L 581 -1331 
L 581 3500 
L 1159 3500 
L 1159 2969 
Q 1341 3281 1617 3432 
Q 1894 3584 2278 3584 
Q 2916 3584 3314 3078 
Q 3713 2572 3713 1747 
Q 3713 922 3314 415 
Q 2916 -91 2278 -91 
Q 1894 -91 1617 61 
Q 1341 213 1159 525 
z
M 3116 1747 
Q 3116 2381 2855 2742 
Q 2594 3103 2138 3103 
Q 1681 3103 1420 2742 
Q 1159 2381 1159 1747 
Q 1159 1113 1420 752 
Q 1681 391 2138 391 
Q 2594 391 2855 752 
Q 3116 1113 3116 1747 
z
" transform="scale(0.015625)"/>
       <path id="DejaVuSans-6f" d="M 1959 3097 
Q 1497 3097 1228 2736 
Q 959 2375 959 1747 
Q 959 1119 1226 758 
Q 1494 397 1959 397 
Q 2419 397 2687 759 
Q 2956 1122 2956 1747 
Q 2956 2369 2687 2733 
Q 2419 3097 1959 3097 
z
M 1959 3584 
Q 2709 3584 3137 3096 
Q 3566 2609 3566 1747 
Q 3566 888 3137 398 
Q 2709 -91 1959 -91 
Q 1206 -91 779 398 
Q 353 888 353 1747 
Q 353 2609 779 3096 
Q 1206 3584 1959 3584 
z
" transform="scale(0.015625)"/>
       <path id="DejaVuSans-63" d="M 3122 3366 
L 3122 2828 
Q 2878 2963 2633 3030 
Q 2388 3097 2138 3097 
Q 1578 3097 1268 2742 
Q 959 2388 959 1747 
Q 959 1106 1268 751 
Q 1578 397 2138 397 
Q 2388 397 2633 464 
Q 2878 531 3122 666 
L 3122 134 
Q 2881 22 2623 -34 
Q 2366 -91 2075 -91 
Q 1284 -91 818 406 
Q 353 903 353 1747 
Q 353 2603 823 3093 
Q 1294 3584 2113 3584 
Q 2378 3584 2631 3529 
Q 2884 3475 3122 3366 
z
" transform="scale(0.015625)"/>
       <path id="DejaVuSans-68" d="M 3513 2113 
L 3513 0 
L 2938 0 
L 2938 2094 
Q 2938 2591 2744 2837 
Q 2550 3084 2163 3084 
Q 1697 3084 1428 2787 
Q 1159 2491 1159 1978 
L 1159 0 
L 581 0 
L 581 4863 
L 1159 4863 
L 1159 2956 
Q 1366 3272 1645 3428 
Q 1925 3584 2291 3584 
Q 2894 3584 3203 3211 
Q 3513 2838 3513 2113 
z
" transform="scale(0.015625)"/>
       <path id="DejaVuSans-28" d="M 1984 4856 
Q 1566 4138 1362 3434 
Q 1159 2731 1159 2009 
Q 1159 1288 1364 580 
Q 1569 -128 1984 -844 
L 1484 -844 
Q 1016 -109 783 600 
Q 550 1309 550 2009 
Q 550 2706 781 3412 
Q 1013 4119 1484 4856 
L 1984 4856 
z
" transform="scale(0.015625)"/>
       <path id="DejaVuSans-77" d="M 269 3500 
L 844 3500 
L 1563 769 
L 2278 3500 
L 2956 3500 
L 3675 769 
L 4391 3500 
L 4966 3500 
L 4050 0 
L 3372 0 
L 2619 2869 
L 1863 0 
L 1184 0 
L 269 3500 
z
" transform="scale(0.015625)"/>
       <path id="DejaVuSans-6d" d="M 3328 2828 
Q 3544 3216 3844 3400 
Q 4144 3584 4550 3584 
Q 5097 3584 5394 3201 
Q 5691 2819 5691 2113 
L 5691 0 
L 5113 0 
L 5113 2094 
Q 5113 2597 4934 2840 
Q 4756 3084 4391 3084 
Q 3944 3084 3684 2787 
Q 3425 2491 3425 1978 
L 3425 0 
L 2847 0 
L 2847 2094 
Q 2847 2600 2669 2842 
Q 2491 3084 2119 3084 
Q 1678 3084 1418 2786 
Q 1159 2488 1159 1978 
L 1159 0 
L 581 0 
L 581 3500 
L 1159 3500 
L 1159 2956 
Q 1356 3278 1631 3431 
Q 1906 3584 2284 3584 
Q 2666 3584 2933 3390 
Q 3200 3197 3328 2828 
z
" transform="scale(0.015625)"/>
       <path id="DejaVuSans-2d" d="M 313 2009 
L 1997 2009 
L 1997 1497 
L 313 1497 
L 313 2009 
z
" transform="scale(0.015625)"/>
       <path id="DejaVuSans-75" d="M 544 1381 
L 544 3500 
L 1119 3500 
L 1119 1403 
Q 1119 906 1312 657 
Q 1506 409 1894 409 
Q 2359 409 2629 706 
Q 2900 1003 2900 1516 
L 2900 3500 
L 3475 3500 
L 3475 0 
L 2900 0 
L 2900 538 
Q 2691 219 2414 64 
Q 2138 -91 1772 -91 
Q 1169 -91 856 284 
Q 544 659 544 1381 
z
M 1991 3584 
L 1991 3584 
z
" transform="scale(0.015625)"/>
       <path id="DejaVuSans-66" d="M 2375 4863 
L 2375 4384 
L 1825 4384 
Q 1516 4384 1395 4259 
Q 1275 4134 1275 3809 
L 1275 3500 
L 2222 3500 
L 2222 3053 
L 1275 3053 
L 1275 0 
L 697 0 
L 697 3053 
L 147 3053 
L 147 3500 
L 697 3500 
L 697 3744 
Q 697 4328 969 4595 
Q 1241 4863 1831 4863 
L 2375 4863 
z
" transform="scale(0.015625)"/>
       <path id="DejaVuSans-69" d="M 603 3500 
L 1178 3500 
L 1178 0 
L 603 0 
L 603 3500 
z
M 603 4863 
L 1178 4863 
L 1178 4134 
L 603 4134 
L 603 4863 
z
" transform="scale(0.015625)"/>
       <path id="DejaVuSans-73" d="M 2834 3397 
L 2834 2853 
Q 2591 2978 2328 3040 
Q 2066 3103 1784 3103 
Q 1356 3103 1142 2972 
Q 928 2841 928 2578 
Q 928 2378 1081 2264 
Q 1234 2150 1697 2047 
L 1894 2003 
Q 2506 1872 2764 1633 
Q 3022 1394 3022 966 
Q 3022 478 2636 193 
Q 2250 -91 1575 -91 
Q 1294 -91 989 -36 
Q 684 19 347 128 
L 347 722 
Q 666 556 975 473 
Q 1284 391 1588 391 
Q 1994 391 2212 530 
Q 2431 669 2431 922 
Q 2431 1156 2273 1281 
Q 2116 1406 1581 1522 
L 1381 1569 
Q 847 1681 609 1914 
Q 372 2147 372 2553 
Q 372 3047 722 3315 
Q 1072 3584 1716 3584 
Q 2034 3584 2315 3537 
Q 2597 3491 2834 3397 
z
" transform="scale(0.015625)"/>
       <path id="DejaVuSans-74" d="M 1172 4494 
L 1172 3500 
L 2356 3500 
L 2356 3053 
L 1172 3053 
L 1172 1153 
Q 1172 725 1289 603 
Q 1406 481 1766 481 
L 2356 481 
L 2356 0 
L 1766 0 
Q 1100 0 847 248 
Q 594 497 594 1153 
L 594 3053 
L 172 3053 
L 172 3500 
L 594 3500 
L 594 4494 
L 1172 4494 
z
" transform="scale(0.015625)"/>
       <path id="DejaVuSans-29" d="M 513 4856 
L 1013 4856 
Q 1481 4119 1714 3412 
Q 1947 2706 1947 2009 
Q 1947 1309 1714 600 
Q 1481 -109 1013 -844 
L 513 -844 
Q 928 -128 1133 580 
Q 1338 1288 1338 2009 
Q 1338 2731 1133 3434 
Q 928 4138 513 4856 
z
" transform="scale(0.015625)"/>
      </defs>
      <use xlink:href="#DejaVuSans-4f"/>
      <use xlink:href="#DejaVuSans-76" x="78.710938"/>
      <use xlink:href="#DejaVuSans-65" x="137.890625"/>
      <use xlink:href="#DejaVuSans-72" x="199.414062"/>
      <use xlink:href="#DejaVuSans-61" x="240.527344"/>
      <use xlink:href="#DejaVuSans-6c" x="301.806641"/>
      <use xlink:href="#DejaVuSans-6c" x="329.589844"/>
      <use xlink:href="#DejaVuSans-20" x="357.373047"/>
      <use xlink:href="#DejaVuSans-65" x="389.160156"/>
      <use xlink:href="#DejaVuSans-70" x="450.683594"/>
      <use xlink:href="#DejaVuSans-6f" x="514.160156"/>
      <use xlink:href="#DejaVuSans-63" x="575.341797"/>
      <use xlink:href="#DejaVuSans-68" x="630.322266"/>
      <use xlink:href="#DejaVuSans-20" x="693.701172"/>
      <use xlink:href="#DejaVuSans-28" x="725.488281"/>
      <use xlink:href="#DejaVuSans-77" x="764.501953"/>
      <use xlink:href="#DejaVuSans-61" x="846.289062"/>
      <use xlink:href="#DejaVuSans-72" x="907.568359"/>
      <use xlink:href="#DejaVuSans-6d" x="946.931641"/>
      <use xlink:href="#DejaVuSans-2d" x="1044.34375"/>
      <use xlink:href="#DejaVuSans-75" x="1080.427734"/>
      <use xlink:href="#DejaVuSans-70" x="1143.806641"/>
      <use xlink:href="#DejaVuSans-20" x="1207.283203"/>
      <use xlink:href="#DejaVuSans-66" x="1239.070312"/>
      <use xlink:href="#DejaVuSans-69" x="1274.275391"/>
      <use xlink:href="#DejaVuSans-72" x="1302.058594"/>
      <use xlink:href="#DejaVuSans-73" x="1343.171875"/>
      <use xlink:href="#DejaVuSans-74" x="1395.271484"/>
      <use xlink:href="#DejaVuSans-29" x="1434.480469"/>
     </g>
    </g>
   </g>
   <g id="matplotlib.axis_2">
    <g id="ytick_1">
     <g id="line2d_15">
      <path d="M 38.27 273.310373 
L 457.83 273.310373 
" clip-path="url(#pdb8fb2e3b4)" style="fill: none; stroke: #b0b0b0; stroke-opacity: 0.2; stroke-width: 0.8; stroke-linecap: square"/>
     </g>
     <g id="line2d_16">
      <defs>
       <path id="mec4d51481e" d="M 0 0 
L -3.5 0 
" style="stroke: #000000; stroke-width: 0.8"/>
      </defs>
      <g>
       <use xlink:href="#mec4d51481e" x="38.27" y="273.310373" style="stroke: #000000; stroke-width: 0.8"/>
      </g>
     </g>
     <g id="text_9">
      <!-- 0 -->
      <g transform="translate(24.9075 277.109592) scale(0.1 -0.1)">
       <use xlink:href="#DejaVuSans-30"/>
      </g>
     </g>
    </g>
    <g id="ytick_2">
     <g id="line2d_17">
      <path d="M 38.27 243.710631 
L 457.83 243.710631 
" clip-path="url(#pdb8fb2e3b4)" style="fill: none; stroke: #b0b0b0; stroke-opacity: 0.2; stroke-width: 0.8; stroke-linecap: square"/>
     </g>
     <g id="line2d_18">
      <g>
       <use xlink:href="#mec4d51481e" x="38.27" y="243.710631" style="stroke: #000000; stroke-width: 0.8"/>
      </g>
     </g>
     <g id="text_10">
      <!-- 1 -->
      <g transform="translate(24.9075 247.509849) scale(0.1 -0.1)">
       <use xlink:href="#DejaVuSans-31"/>
      </g>
     </g>
    </g>
    <g id="ytick_3">
     <g id="line2d_19">
      <path d="M 38.27 214.110888 
L 457.83 214.110888 
" clip-path="url(#pdb8fb2e3b4)" style="fill: none; stroke: #b0b0b0; stroke-opacity: 0.2; stroke-width: 0.8; stroke-linecap: square"/>
     </g>
     <g id="line2d_20">
      <g>
       <use xlink:href="#mec4d51481e" x="38.27" y="214.110888" style="stroke: #000000; stroke-width: 0.8"/>
      </g>
     </g>
     <g id="text_11">
      <!-- 2 -->
      <g transform="translate(24.9075 217.910107) scale(0.1 -0.1)">
       <use xlink:href="#DejaVuSans-32"/>
      </g>
     </g>
    </g>
    <g id="ytick_4">
     <g id="line2d_21">
      <path d="M 38.27 184.511146 
L 457.83 184.511146 
" clip-path="url(#pdb8fb2e3b4)" style="fill: none; stroke: #b0b0b0; stroke-opacity: 0.2; stroke-width: 0.8; stroke-linecap: square"/>
     </g>
     <g id="line2d_22">
      <g>
       <use xlink:href="#mec4d51481e" x="38.27" y="184.511146" style="stroke: #000000; stroke-width: 0.8"/>
      </g>
     </g>
     <g id="text_12">
      <!-- 3 -->
      <g transform="translate(24.9075 188.310365) scale(0.1 -0.1)">
       <use xlink:href="#DejaVuSans-33"/>
      </g>
     </g>
    </g>
    <g id="ytick_5">
     <g id="line2d_23">
      <path d="M 38.27 154.911404 
L 457.83 154.911404 
" clip-path="url(#pdb8fb2e3b4)" style="fill: none; stroke: #b0b0b0; stroke-opacity: 0.2; stroke-width: 0.8; stroke-linecap: square"/>
     </g>
     <g id="line2d_24">
      <g>
       <use xlink:href="#mec4d51481e" x="38.27" y="154.911404" style="stroke: #000000; stroke-width: 0.8"/>
      </g>
     </g>
     <g id="text_13">
      <!-- 4 -->
      <g transform="translate(24.9075 158.710623) scale(0.1 -0.1)">
       <use xlink:href="#DejaVuSans-34"/>
      </g>
     </g>
    </g>
    <g id="ytick_6">
     <g id="line2d_25">
      <path d="M 38.27 125.311662 
L 457.83 125.311662 
" clip-path="url(#pdb8fb2e3b4)" style="fill: none; stroke: #b0b0b0; stroke-opacity: 0.2; stroke-width: 0.8; stroke-linecap: square"/>
     </g>
     <g id="line2d_26">
      <g>
       <use xlink:href="#mec4d51481e" x="38.27" y="125.311662" style="stroke: #000000; stroke-width: 0.8"/>
      </g>
     </g>
     <g id="text_14">
      <!-- 5 -->
      <g transform="translate(24.9075 129.11088) scale(0.1 -0.1)">
       <use xlink:href="#DejaVuSans-35"/>
      </g>
     </g>
    </g>
    <g id="ytick_7">
     <g id="line2d_27">
      <path d="M 38.27 95.711919 
L 457.83 95.711919 
" clip-path="url(#pdb8fb2e3b4)" style="fill: none; stroke: #b0b0b0; stroke-opacity: 0.2; stroke-width: 0.8; stroke-linecap: square"/>
     </g>
     <g id="line2d_28">
      <g>
       <use xlink:href="#mec4d51481e" x="38.27" y="95.711919" style="stroke: #000000; stroke-width: 0.8"/>
      </g>
     </g>
     <g id="text_15">
      <!-- 6 -->
      <g transform="translate(24.9075 99.511138) scale(0.1 -0.1)">
       <use xlink:href="#DejaVuSans-36"/>
      </g>
     </g>
    </g>
    <g id="ytick_8">
     <g id="line2d_29">
      <path d="M 38.27 66.112177 
L 457.83 66.112177 
" clip-path="url(#pdb8fb2e3b4)" style="fill: none; stroke: #b0b0b0; stroke-opacity: 0.2; stroke-width: 0.8; stroke-linecap: square"/>
     </g>
     <g id="line2d_30">
      <g>
       <use xlink:href="#mec4d51481e" x="38.27" y="66.112177" style="stroke: #000000; stroke-width: 0.8"/>
      </g>
     </g>
     <g id="text_16">
      <!-- 7 -->
      <g transform="translate(24.9075 69.911396) scale(0.1 -0.1)">
       <defs>
        <path id="DejaVuSans-37" d="M 525 4666 
L 3525 4666 
L 3525 4397 
L 1831 0 
L 1172 0 
L 2766 4134 
L 525 4134 
L 525 4666 
z
" transform="scale(0.015625)"/>
       </defs>
       <use xlink:href="#DejaVuSans-37"/>
      </g>
     </g>
    </g>
    <g id="ytick_9">
     <g id="line2d_31">
      <path d="M 38.27 36.512435 
L 457.83 36.512435 
" clip-path="url(#pdb8fb2e3b4)" style="fill: none; stroke: #b0b0b0; stroke-opacity: 0.2; stroke-width: 0.8; stroke-linecap: square"/>
     </g>
     <g id="line2d_32">
      <g>
       <use xlink:href="#mec4d51481e" x="38.27" y="36.512435" style="stroke: #000000; stroke-width: 0.8"/>
      </g>
     </g>
     <g id="text_17">
      <!-- 8 -->
      <g transform="translate(24.9075 40.311653) scale(0.1 -0.1)">
       <defs>
        <path id="DejaVuSans-38" d="M 2034 2216 
Q 1584 2216 1326 1975 
Q 1069 1734 1069 1313 
Q 1069 891 1326 650 
Q 1584 409 2034 409 
Q 2484 409 2743 651 
Q 3003 894 3003 1313 
Q 3003 1734 2745 1975 
Q 2488 2216 2034 2216 
z
M 1403 2484 
Q 997 2584 770 2862 
Q 544 3141 544 3541 
Q 544 4100 942 4425 
Q 1341 4750 2034 4750 
Q 2731 4750 3128 4425 
Q 3525 4100 3525 3541 
Q 3525 3141 3298 2862 
Q 3072 2584 2669 2484 
Q 3125 2378 3379 2068 
Q 3634 1759 3634 1313 
Q 3634 634 3220 271 
Q 2806 -91 2034 -91 
Q 1263 -91 848 271 
Q 434 634 434 1313 
Q 434 1759 690 2068 
Q 947 2378 1403 2484 
z
M 1172 3481 
Q 1172 3119 1398 2916 
Q 1625 2713 2034 2713 
Q 2441 2713 2670 2916 
Q 2900 3119 2900 3481 
Q 2900 3844 2670 4047 
Q 2441 4250 2034 4250 
Q 1625 4250 1398 4047 
Q 1172 3844 1172 3481 
z
" transform="scale(0.015625)"/>
       </defs>
       <use xlink:href="#DejaVuSans-38"/>
      </g>
     </g>
    </g>
    <g id="text_18">
     <!-- Train native multi-branch loss -->
     <g transform="translate(18.827812 233.198438) rotate(-90) scale(0.1 -0.1)">
      <defs>
       <path id="DejaVuSans-54" d="M -19 4666 
L 3928 4666 
L 3928 4134 
L 2272 4134 
L 2272 0 
L 1638 0 
L 1638 4134 
L -19 4134 
L -19 4666 
z
" transform="scale(0.015625)"/>
       <path id="DejaVuSans-6e" d="M 3513 2113 
L 3513 0 
L 2938 0 
L 2938 2094 
Q 2938 2591 2744 2837 
Q 2550 3084 2163 3084 
Q 1697 3084 1428 2787 
Q 1159 2491 1159 1978 
L 1159 0 
L 581 0 
L 581 3500 
L 1159 3500 
L 1159 2956 
Q 1366 3272 1645 3428 
Q 1925 3584 2291 3584 
Q 2894 3584 3203 3211 
Q 3513 2838 3513 2113 
z
" transform="scale(0.015625)"/>
       <path id="DejaVuSans-62" d="M 3116 1747 
Q 3116 2381 2855 2742 
Q 2594 3103 2138 3103 
Q 1681 3103 1420 2742 
Q 1159 2381 1159 1747 
Q 1159 1113 1420 752 
Q 1681 391 2138 391 
Q 2594 391 2855 752 
Q 3116 1113 3116 1747 
z
M 1159 2969 
Q 1341 3281 1617 3432 
Q 1894 3584 2278 3584 
Q 2916 3584 3314 3078 
Q 3713 2572 3713 1747 
Q 3713 922 3314 415 
Q 2916 -91 2278 -91 
Q 1894 -91 1617 61 
Q 1341 213 1159 525 
L 1159 0 
L 581 0 
L 581 4863 
L 1159 4863 
L 1159 2969 
z
" transform="scale(0.015625)"/>
      </defs>
      <use xlink:href="#DejaVuSans-54"/>
      <use xlink:href="#DejaVuSans-72" x="46.333984"/>
      <use xlink:href="#DejaVuSans-61" x="87.447266"/>
      <use xlink:href="#DejaVuSans-69" x="148.726562"/>
      <use xlink:href="#DejaVuSans-6e" x="176.509766"/>
      <use xlink:href="#DejaVuSans-20" x="239.888672"/>
      <use xlink:href="#DejaVuSans-6e" x="271.675781"/>
      <use xlink:href="#DejaVuSans-61" x="335.054688"/>
      <use xlink:href="#DejaVuSans-74" x="396.333984"/>
      <use xlink:href="#DejaVuSans-69" x="435.542969"/>
      <use xlink:href="#DejaVuSans-76" x="463.326172"/>
      <use xlink:href="#DejaVuSans-65" x="522.505859"/>
      <use xlink:href="#DejaVuSans-20" x="584.029297"/>
      <use xlink:href="#DejaVuSans-6d" x="615.816406"/>
      <use xlink:href="#DejaVuSans-75" x="713.228516"/>
      <use xlink:href="#DejaVuSans-6c" x="776.607422"/>
      <use xlink:href="#DejaVuSans-74" x="804.390625"/>
      <use xlink:href="#DejaVuSans-69" x="843.599609"/>
      <use xlink:href="#DejaVuSans-2d" x="871.382812"/>
      <use xlink:href="#DejaVuSans-62" x="907.466797"/>
      <use xlink:href="#DejaVuSans-72" x="970.943359"/>
      <use xlink:href="#DejaVuSans-61" x="1012.056641"/>
      <use xlink:href="#DejaVuSans-6e" x="1073.335938"/>
      <use xlink:href="#DejaVuSans-63" x="1136.714844"/>
      <use xlink:href="#DejaVuSans-68" x="1191.695312"/>
      <use xlink:href="#DejaVuSans-20" x="1255.074219"/>
      <use xlink:href="#DejaVuSans-6c" x="1286.861328"/>
      <use xlink:href="#DejaVuSans-6f" x="1314.644531"/>
      <use xlink:href="#DejaVuSans-73" x="1375.826172"/>
      <use xlink:href="#DejaVuSans-73" x="1427.925781"/>
     </g>
    </g>
   </g>
   <g id="line2d_33">
    <path d="M 57.340909 48.489106 
L 63.697879 77.347411 
L 70.054848 83.945806 
L 76.411818 87.795427 
L 82.768788 88.474478 
L 89.125758 93.054085 
L 95.482727 135.797253 
L 101.839697 154.992682 
L 108.196667 171.158083 
L 114.553636 177.944712 
L 120.910606 190.719883 
L 127.267576 202.134949 
L 133.624545 204.395023 
L 139.981515 214.337838 
L 146.338485 219.527281 
L 152.695455 224.437127 
L 159.052424 227.211595 
L 165.409394 231.794045 
L 171.766364 234.649101 
L 178.123333 239.8188 
L 184.480303 241.419618 
L 190.837273 246.176075 
L 197.194242 246.240732 
L 203.551212 247.35935 
L 209.908182 249.012812 
L 216.265152 251.91623 
L 222.622121 256.027607 
L 228.979091 255.932308 
L 235.336061 258.777758 
L 241.69303 260.309137 
L 248.05 262.467653 
L 254.40697 258.567526 
L 260.763939 260.315188 
L 267.120909 261.824847 
L 273.477879 263.594406 
L 279.834848 264.161942 
L 286.191818 265.622483 
L 292.548788 265.142559 
L 298.905758 265.778365 
L 305.262727 266.620582 
L 311.619697 267.041096 
L 317.976667 267.941879 
L 324.333636 268.372464 
L 330.690606 268.268277 
L 337.047576 269.200638 
L 343.404545 268.589084 
L 349.761515 268.770505 
L 356.118485 268.701224 
L 362.475455 269.298935 
L 368.832424 269.602619 
L 375.189394 269.358438 
L 381.546364 270.070915 
L 387.903333 270.044079 
L 394.260303 269.946393 
L 400.617273 270.225748 
L 406.974242 270.408044 
L 413.331212 270.634114 
L 419.688182 270.475524 
L 426.045152 270.729009 
L 432.402121 270.695041 
L 438.759091 270.872727 
" clip-path="url(#pdb8fb2e3b4)" style="fill: none; stroke: #1f77b4; stroke-width: 1.5; stroke-linecap: square"/>
   </g>
   <g id="line2d_34">
    <path d="M 57.340909 47.527273 
L 63.697879 76.843289 
L 70.054848 83.455818 
L 76.411818 88.068171 
L 82.768788 90.502085 
L 89.125758 96.515399 
L 95.482727 134.210546 
L 101.839697 156.039253 
L 108.196667 166.203441 
L 114.553636 182.038486 
L 120.910606 187.729323 
L 127.267576 199.854877 
L 133.624545 203.256866 
L 139.981515 211.702431 
L 146.338485 218.537376 
L 152.695455 218.114366 
L 159.052424 228.125559 
L 165.409394 230.435005 
L 171.766364 234.025983 
L 178.123333 237.7281 
L 184.480303 240.942429 
L 190.837273 242.119812 
L 197.194242 244.693531 
L 203.551212 250.802102 
L 209.908182 252.038576 
L 216.265152 250.669977 
L 222.622121 252.925778 
L 228.979091 255.890993 
L 235.336061 258.936609 
L 241.69303 260.692826 
L 248.05 258.271049 
L 254.40697 259.974061 
L 260.763939 260.705973 
L 267.120909 258.571091 
" clip-path="url(#pdb8fb2e3b4)" style="fill: none; stroke: #ff7f0e; stroke-width: 1.5; stroke-linecap: square"/>
   </g>
   <g id="line2d_35">
    <path d="M 57.340909 48.636772 
L 63.697879 76.152552 
L 70.054848 83.751538 
L 76.411818 87.762467 
L 82.768788 90.844379 
L 89.125758 94.435758 
L 95.482727 131.861639 
L 101.839697 156.841653 
L 108.196667 172.178746 
L 114.553636 181.229061 
L 120.910606 192.314146 
L 127.267576 197.655313 
L 133.624545 205.564981 
L 139.981515 213.233054 
L 146.338485 217.775143 
L 152.695455 223.669552 
L 159.052424 225.302212 
L 165.409394 229.568342 
L 171.766364 235.406632 
L 178.123333 235.10971 
L 184.480303 241.602677 
L 190.837273 244.429502 
L 197.194242 248.980482 
L 203.551212 249.41552 
L 209.908182 251.039425 
L 216.265152 252.781427 
L 222.622121 253.997109 
L 228.979091 254.371925 
L 235.336061 254.356345 
L 241.69303 258.172702 
L 248.05 259.413621 
L 254.40697 261.615796 
L 260.763939 262.322076 
L 267.120909 264.689108 
L 273.477879 262.294 
L 279.834848 262.091144 
L 286.191818 264.534441 
L 292.548788 266.163261 
L 298.905758 265.828516 
L 305.262727 266.612603 
L 311.619697 267.228242 
L 317.976667 267.023825 
L 324.333636 267.790319 
L 330.690606 268.465014 
L 337.047576 268.578456 
L 343.404545 268.786528 
" clip-path="url(#pdb8fb2e3b4)" style="fill: none; stroke: #2ca02c; stroke-width: 1.5; stroke-linecap: square"/>
   </g>
   <g id="line2d_36">
    <path d="M 85.947273 282.04 
L 85.947273 36.36 
" clip-path="url(#pdb8fb2e3b4)" style="fill: none; stroke-dasharray: 3.7,1.6; stroke-dashoffset: 0; stroke: #808080"/>
   </g>
   <g id="patch_3">
    <path d="M 38.27 282.04 
L 38.27 36.36 
" style="fill: none; stroke: #000000; stroke-width: 0.8; stroke-linejoin: miter; stroke-linecap: square"/>
   </g>
   <g id="patch_4">
    <path d="M 457.83 282.04 
L 457.83 36.36 
" style="fill: none; stroke: #000000; stroke-width: 0.8; stroke-linejoin: miter; stroke-linecap: square"/>
   </g>
   <g id="patch_5">
    <path d="M 38.27 282.04 
L 457.83 282.04 
" style="fill: none; stroke: #000000; stroke-width: 0.8; stroke-linejoin: miter; stroke-linecap: square"/>
   </g>
   <g id="patch_6">
    <path d="M 38.27 36.36 
L 457.83 36.36 
" style="fill: none; stroke: #000000; stroke-width: 0.8; stroke-linejoin: miter; stroke-linecap: square"/>
   </g>
  </g>
  <g id="axes_2">
   <g id="patch_7">
    <path d="M 505.64 282.04 
L 925.2 282.04 
L 925.2 36.36 
L 505.64 36.36 
z
" style="fill: #ffffff"/>
   </g>
   <g id="matplotlib.axis_3">
    <g id="xtick_8">
     <g id="line2d_37">
      <path d="M 518.353939 282.04 
L 518.353939 36.36 
" clip-path="url(#pff58672c49)" style="fill: none; stroke: #b0b0b0; stroke-opacity: 0.2; stroke-width: 0.8; stroke-linecap: square"/>
     </g>
     <g id="line2d_38">
      <g>
       <use xlink:href="#m9b4858b2f2" x="518.353939" y="282.04" style="stroke: #000000; stroke-width: 0.8"/>
      </g>
     </g>
     <g id="text_19">
      <!-- 0 -->
      <g transform="translate(515.172689 296.638438) scale(0.1 -0.1)">
       <use xlink:href="#DejaVuSans-30"/>
      </g>
     </g>
    </g>
    <g id="xtick_9">
     <g id="line2d_39">
      <path d="M 581.923636 282.04 
L 581.923636 36.36 
" clip-path="url(#pff58672c49)" style="fill: none; stroke: #b0b0b0; stroke-opacity: 0.2; stroke-width: 0.8; stroke-linecap: square"/>
     </g>
     <g id="line2d_40">
      <g>
       <use xlink:href="#m9b4858b2f2" x="581.923636" y="282.04" style="stroke: #000000; stroke-width: 0.8"/>
      </g>
     </g>
     <g id="text_20">
      <!-- 10 -->
      <g transform="translate(575.561136 296.638438) scale(0.1 -0.1)">
       <use xlink:href="#DejaVuSans-31"/>
       <use xlink:href="#DejaVuSans-30" x="63.623047"/>
      </g>
     </g>
    </g>
    <g id="xtick_10">
     <g id="line2d_41">
      <path d="M 645.493333 282.04 
L 645.493333 36.36 
" clip-path="url(#pff58672c49)" style="fill: none; stroke: #b0b0b0; stroke-opacity: 0.2; stroke-width: 0.8; stroke-linecap: square"/>
     </g>
     <g id="line2d_42">
      <g>
       <use xlink:href="#m9b4858b2f2" x="645.493333" y="282.04" style="stroke: #000000; stroke-width: 0.8"/>
      </g>
     </g>
     <g id="text_21">
      <!-- 20 -->
      <g transform="translate(639.130833 296.638438) scale(0.1 -0.1)">
       <use xlink:href="#DejaVuSans-32"/>
       <use xlink:href="#DejaVuSans-30" x="63.623047"/>
      </g>
     </g>
    </g>
    <g id="xtick_11">
     <g id="line2d_43">
      <path d="M 709.06303 282.04 
L 709.06303 36.36 
" clip-path="url(#pff58672c49)" style="fill: none; stroke: #b0b0b0; stroke-opacity: 0.2; stroke-width: 0.8; stroke-linecap: square"/>
     </g>
     <g id="line2d_44">
      <g>
       <use xlink:href="#m9b4858b2f2" x="709.06303" y="282.04" style="stroke: #000000; stroke-width: 0.8"/>
      </g>
     </g>
     <g id="text_22">
      <!-- 30 -->
      <g transform="translate(702.70053 296.638438) scale(0.1 -0.1)">
       <use xlink:href="#DejaVuSans-33"/>
       <use xlink:href="#DejaVuSans-30" x="63.623047"/>
      </g>
     </g>
    </g>
    <g id="xtick_12">
     <g id="line2d_45">
      <path d="M 772.632727 282.04 
L 772.632727 36.36 
" clip-path="url(#pff58672c49)" style="fill: none; stroke: #b0b0b0; stroke-opacity: 0.2; stroke-width: 0.8; stroke-linecap: square"/>
     </g>
     <g id="line2d_46">
      <g>
       <use xlink:href="#m9b4858b2f2" x="772.632727" y="282.04" style="stroke: #000000; stroke-width: 0.8"/>
      </g>
     </g>
     <g id="text_23">
      <!-- 40 -->
      <g transform="translate(766.270227 296.638438) scale(0.1 -0.1)">
       <use xlink:href="#DejaVuSans-34"/>
       <use xlink:href="#DejaVuSans-30" x="63.623047"/>
      </g>
     </g>
    </g>
    <g id="xtick_13">
     <g id="line2d_47">
      <path d="M 836.202424 282.04 
L 836.202424 36.36 
" clip-path="url(#pff58672c49)" style="fill: none; stroke: #b0b0b0; stroke-opacity: 0.2; stroke-width: 0.8; stroke-linecap: square"/>
     </g>
     <g id="line2d_48">
      <g>
       <use xlink:href="#m9b4858b2f2" x="836.202424" y="282.04" style="stroke: #000000; stroke-width: 0.8"/>
      </g>
     </g>
     <g id="text_24">
      <!-- 50 -->
      <g transform="translate(829.839924 296.638438) scale(0.1 -0.1)">
       <use xlink:href="#DejaVuSans-35"/>
       <use xlink:href="#DejaVuSans-30" x="63.623047"/>
      </g>
     </g>
    </g>
    <g id="xtick_14">
     <g id="line2d_49">
      <path d="M 899.772121 282.04 
L 899.772121 36.36 
" clip-path="url(#pff58672c49)" style="fill: none; stroke: #b0b0b0; stroke-opacity: 0.2; stroke-width: 0.8; stroke-linecap: square"/>
     </g>
     <g id="line2d_50">
      <g>
       <use xlink:href="#m9b4858b2f2" x="899.772121" y="282.04" style="stroke: #000000; stroke-width: 0.8"/>
      </g>
     </g>
     <g id="text_25">
      <!-- 60 -->
      <g transform="translate(893.409621 296.638438) scale(0.1 -0.1)">
       <use xlink:href="#DejaVuSans-36"/>
       <use xlink:href="#DejaVuSans-30" x="63.623047"/>
      </g>
     </g>
    </g>
    <g id="text_26">
     <!-- Overall epoch (warm-up first) -->
     <g transform="translate(641.745781 310.316563) scale(0.1 -0.1)">
      <use xlink:href="#DejaVuSans-4f"/>
      <use xlink:href="#DejaVuSans-76" x="78.710938"/>
      <use xlink:href="#DejaVuSans-65" x="137.890625"/>
      <use xlink:href="#DejaVuSans-72" x="199.414062"/>
      <use xlink:href="#DejaVuSans-61" x="240.527344"/>
      <use xlink:href="#DejaVuSans-6c" x="301.806641"/>
      <use xlink:href="#DejaVuSans-6c" x="329.589844"/>
      <use xlink:href="#DejaVuSans-20" x="357.373047"/>
      <use xlink:href="#DejaVuSans-65" x="389.160156"/>
      <use xlink:href="#DejaVuSans-70" x="450.683594"/>
      <use xlink:href="#DejaVuSans-6f" x="514.160156"/>
      <use xlink:href="#DejaVuSans-63" x="575.341797"/>
      <use xlink:href="#DejaVuSans-68" x="630.322266"/>
      <use xlink:href="#DejaVuSans-20" x="693.701172"/>
      <use xlink:href="#DejaVuSans-28" x="725.488281"/>
      <use xlink:href="#DejaVuSans-77" x="764.501953"/>
      <use xlink:href="#DejaVuSans-61" x="846.289062"/>
      <use xlink:href="#DejaVuSans-72" x="907.568359"/>
      <use xlink:href="#DejaVuSans-6d" x="946.931641"/>
      <use xlink:href="#DejaVuSans-2d" x="1044.34375"/>
      <use xlink:href="#DejaVuSans-75" x="1080.427734"/>
      <use xlink:href="#DejaVuSans-70" x="1143.806641"/>
      <use xlink:href="#DejaVuSans-20" x="1207.283203"/>
      <use xlink:href="#DejaVuSans-66" x="1239.070312"/>
      <use xlink:href="#DejaVuSans-69" x="1274.275391"/>
      <use xlink:href="#DejaVuSans-72" x="1302.058594"/>
      <use xlink:href="#DejaVuSans-73" x="1343.171875"/>
      <use xlink:href="#DejaVuSans-74" x="1395.271484"/>
      <use xlink:href="#DejaVuSans-29" x="1434.480469"/>
     </g>
    </g>
   </g>
   <g id="matplotlib.axis_4">
    <g id="ytick_10">
     <g id="line2d_51">
      <path d="M 505.64 282.04 
L 925.2 282.04 
" clip-path="url(#pff58672c49)" style="fill: none; stroke: #b0b0b0; stroke-opacity: 0.2; stroke-width: 0.8; stroke-linecap: square"/>
     </g>
     <g id="line2d_52">
      <g>
       <use xlink:href="#mec4d51481e" x="505.64" y="282.04" style="stroke: #000000; stroke-width: 0.8"/>
      </g>
     </g>
     <g id="text_27">
      <!-- 0.0 -->
      <g transform="translate(482.736875 285.839219) scale(0.1 -0.1)">
       <defs>
        <path id="DejaVuSans-2e" d="M 684 794 
L 1344 794 
L 1344 0 
L 684 0 
L 684 794 
z
" transform="scale(0.015625)"/>
       </defs>
       <use xlink:href="#DejaVuSans-30"/>
       <use xlink:href="#DejaVuSans-2e" x="63.623047"/>
       <use xlink:href="#DejaVuSans-30" x="95.410156"/>
      </g>
     </g>
    </g>
    <g id="ytick_11">
     <g id="line2d_53">
      <path d="M 505.64 232.904 
L 925.2 232.904 
" clip-path="url(#pff58672c49)" style="fill: none; stroke: #b0b0b0; stroke-opacity: 0.2; stroke-width: 0.8; stroke-linecap: square"/>
     </g>
     <g id="line2d_54">
      <g>
       <use xlink:href="#mec4d51481e" x="505.64" y="232.904" style="stroke: #000000; stroke-width: 0.8"/>
      </g>
     </g>
     <g id="text_28">
      <!-- 0.2 -->
      <g transform="translate(482.736875 236.703219) scale(0.1 -0.1)">
       <use xlink:href="#DejaVuSans-30"/>
       <use xlink:href="#DejaVuSans-2e" x="63.623047"/>
       <use xlink:href="#DejaVuSans-32" x="95.410156"/>
      </g>
     </g>
    </g>
    <g id="ytick_12">
     <g id="line2d_55">
      <path d="M 505.64 183.768 
L 925.2 183.768 
" clip-path="url(#pff58672c49)" style="fill: none; stroke: #b0b0b0; stroke-opacity: 0.2; stroke-width: 0.8; stroke-linecap: square"/>
     </g>
     <g id="line2d_56">
      <g>
       <use xlink:href="#mec4d51481e" x="505.64" y="183.768" style="stroke: #000000; stroke-width: 0.8"/>
      </g>
     </g>
     <g id="text_29">
      <!-- 0.4 -->
      <g transform="translate(482.736875 187.567219) scale(0.1 -0.1)">
       <use xlink:href="#DejaVuSans-30"/>
       <use xlink:href="#DejaVuSans-2e" x="63.623047"/>
       <use xlink:href="#DejaVuSans-34" x="95.410156"/>
      </g>
     </g>
    </g>
    <g id="ytick_13">
     <g id="line2d_57">
      <path d="M 505.64 134.632 
L 925.2 134.632 
" clip-path="url(#pff58672c49)" style="fill: none; stroke: #b0b0b0; stroke-opacity: 0.2; stroke-width: 0.8; stroke-linecap: square"/>
     </g>
     <g id="line2d_58">
      <g>
       <use xlink:href="#mec4d51481e" x="505.64" y="134.632" style="stroke: #000000; stroke-width: 0.8"/>
      </g>
     </g>
     <g id="text_30">
      <!-- 0.6 -->
      <g transform="translate(482.736875 138.431219) scale(0.1 -0.1)">
       <use xlink:href="#DejaVuSans-30"/>
       <use xlink:href="#DejaVuSans-2e" x="63.623047"/>
       <use xlink:href="#DejaVuSans-36" x="95.410156"/>
      </g>
     </g>
    </g>
    <g id="ytick_14">
     <g id="line2d_59">
      <path d="M 505.64 85.496 
L 925.2 85.496 
" clip-path="url(#pff58672c49)" style="fill: none; stroke: #b0b0b0; stroke-opacity: 0.2; stroke-width: 0.8; stroke-linecap: square"/>
     </g>
     <g id="line2d_60">
      <g>
       <use xlink:href="#mec4d51481e" x="505.64" y="85.496" style="stroke: #000000; stroke-width: 0.8"/>
      </g>
     </g>
     <g id="text_31">
      <!-- 0.8 -->
      <g transform="translate(482.736875 89.295219) scale(0.1 -0.1)">
       <use xlink:href="#DejaVuSans-30"/>
       <use xlink:href="#DejaVuSans-2e" x="63.623047"/>
       <use xlink:href="#DejaVuSans-38" x="95.410156"/>
      </g>
     </g>
    </g>
    <g id="ytick_15">
     <g id="line2d_61">
      <path d="M 505.64 36.36 
L 925.2 36.36 
" clip-path="url(#pff58672c49)" style="fill: none; stroke: #b0b0b0; stroke-opacity: 0.2; stroke-width: 0.8; stroke-linecap: square"/>
     </g>
     <g id="line2d_62">
      <g>
       <use xlink:href="#mec4d51481e" x="505.64" y="36.36" style="stroke: #000000; stroke-width: 0.8"/>
      </g>
     </g>
     <g id="text_32">
      <!-- 1.0 -->
      <g transform="translate(482.736875 40.159219) scale(0.1 -0.1)">
       <use xlink:href="#DejaVuSans-31"/>
       <use xlink:href="#DejaVuSans-2e" x="63.623047"/>
       <use xlink:href="#DejaVuSans-30" x="95.410156"/>
      </g>
     </g>
    </g>
    <g id="text_33">
     <!-- Validation macro-F1 -->
     <g transform="translate(476.657188 209.120312) rotate(-90) scale(0.1 -0.1)">
      <defs>
       <path id="DejaVuSans-56" d="M 1831 0 
L 50 4666 
L 709 4666 
L 2188 738 
L 3669 4666 
L 4325 4666 
L 2547 0 
L 1831 0 
z
" transform="scale(0.015625)"/>
       <path id="DejaVuSans-64" d="M 2906 2969 
L 2906 4863 
L 3481 4863 
L 3481 0 
L 2906 0 
L 2906 525 
Q 2725 213 2448 61 
Q 2172 -91 1784 -91 
Q 1150 -91 751 415 
Q 353 922 353 1747 
Q 353 2572 751 3078 
Q 1150 3584 1784 3584 
Q 2172 3584 2448 3432 
Q 2725 3281 2906 2969 
z
M 947 1747 
Q 947 1113 1208 752 
Q 1469 391 1925 391 
Q 2381 391 2643 752 
Q 2906 1113 2906 1747 
Q 2906 2381 2643 2742 
Q 2381 3103 1925 3103 
Q 1469 3103 1208 2742 
Q 947 2381 947 1747 
z
" transform="scale(0.015625)"/>
       <path id="DejaVuSans-46" d="M 628 4666 
L 3309 4666 
L 3309 4134 
L 1259 4134 
L 1259 2759 
L 3109 2759 
L 3109 2228 
L 1259 2228 
L 1259 0 
L 628 0 
L 628 4666 
z
" transform="scale(0.015625)"/>
      </defs>
      <use xlink:href="#DejaVuSans-56"/>
      <use xlink:href="#DejaVuSans-61" x="60.658203"/>
      <use xlink:href="#DejaVuSans-6c" x="121.9375"/>
      <use xlink:href="#DejaVuSans-69" x="149.720703"/>
      <use xlink:href="#DejaVuSans-64" x="177.503906"/>
      <use xlink:href="#DejaVuSans-61" x="240.980469"/>
      <use xlink:href="#DejaVuSans-74" x="302.259766"/>
      <use xlink:href="#DejaVuSans-69" x="341.46875"/>
      <use xlink:href="#DejaVuSans-6f" x="369.251953"/>
      <use xlink:href="#DejaVuSans-6e" x="430.433594"/>
      <use xlink:href="#DejaVuSans-20" x="493.8125"/>
      <use xlink:href="#DejaVuSans-6d" x="525.599609"/>
      <use xlink:href="#DejaVuSans-61" x="623.011719"/>
      <use xlink:href="#DejaVuSans-63" x="684.291016"/>
      <use xlink:href="#DejaVuSans-72" x="739.271484"/>
      <use xlink:href="#DejaVuSans-6f" x="778.134766"/>
      <use xlink:href="#DejaVuSans-2d" x="841.191406"/>
      <use xlink:href="#DejaVuSans-46" x="877.275391"/>
      <use xlink:href="#DejaVuSans-31" x="934.794922"/>
     </g>
    </g>
   </g>
   <g id="line2d_63">
    <path d="M 524.710909 184.443889 
L 531.067879 172.207461 
L 537.424848 176.333968 
L 543.781818 160.331724 
L 550.138788 181.215853 
L 556.495758 147.332986 
L 562.852727 135.176953 
L 569.209697 121.168617 
L 575.566667 118.852445 
L 581.923636 107.212918 
L 588.280606 104.630518 
L 594.637576 124.004784 
L 600.994545 100.070966 
L 607.351515 112.687832 
L 613.708485 116.619314 
L 620.065455 111.928422 
L 626.422424 109.134126 
L 632.779394 117.548856 
L 639.136364 105.47374 
L 645.493333 101.847156 
L 651.850303 98.632867 
L 658.207273 110.479702 
L 664.564242 97.10368 
L 670.921212 105.116317 
L 677.278182 108.043303 
L 683.635152 105.05167 
L 689.992121 95.961647 
L 696.349091 107.886197 
L 702.706061 110.744211 
L 709.06303 113.061818 
L 715.42 99.725618 
L 721.77697 98.483279 
L 728.133939 103.138247 
L 734.490909 93.39167 
L 740.847879 96.716989 
L 747.204848 98.890307 
L 753.561818 101.065863 
L 759.918788 95.457331 
L 766.275758 94.586542 
L 772.632727 93.969243 
L 778.989697 89.200629 
L 785.346667 93.221233 
L 791.703636 97.390786 
L 798.060606 90.980867 
L 804.417576 93.906146 
L 810.774545 91.400246 
L 817.131515 98.473685 
L 823.488485 93.622336 
L 829.845455 86.675972 
L 836.202424 91.042871 
L 842.559394 86.496439 
L 848.916364 91.131403 
L 855.273333 93.233461 
L 861.630303 94.398793 
L 867.987273 91.320502 
L 874.344242 88.722813 
L 880.701212 88.871409 
L 887.058182 88.740958 
L 893.415152 88.876408 
L 899.772121 91.194101 
L 906.129091 94.484382 
" clip-path="url(#pff58672c49)" style="fill: none; stroke: #1f77b4; stroke-width: 1.5; stroke-linecap: square"/>
   </g>
   <g id="line2d_64">
    <path d="M 524.710909 183.433995 
L 531.067879 190.082698 
L 537.424848 184.550058 
L 543.781818 167.137971 
L 550.138788 171.217998 
L 556.495758 149.501882 
L 562.852727 126.407213 
L 569.209697 122.413402 
L 575.566667 122.684794 
L 581.923636 103.520232 
L 588.280606 108.852296 
L 594.637576 126.976246 
L 600.994545 106.615859 
L 607.351515 107.91092 
L 613.708485 107.21475 
L 620.065455 111.635909 
L 626.422424 117.328296 
L 632.779394 101.537968 
L 639.136364 108.532961 
L 645.493333 95.763569 
L 651.850303 116.599838 
L 658.207273 106.851638 
L 664.564242 102.335284 
L 670.921212 95.752368 
L 677.278182 101.199678 
L 683.635152 100.065322 
L 689.992121 103.349519 
L 696.349091 106.518982 
L 702.706061 103.22117 
L 709.06303 109.801134 
L 715.42 97.671518 
L 721.77697 100.333778 
L 728.133939 105.762362 
L 734.490909 97.327102 
" clip-path="url(#pff58672c49)" style="fill: none; stroke: #ff7f0e; stroke-width: 1.5; stroke-linecap: square"/>
   </g>
   <g id="line2d_65">
    <path d="M 524.710909 191.85085 
L 531.067879 189.012021 
L 537.424848 176.035577 
L 543.781818 178.219197 
L 550.138788 170.762053 
L 556.495758 145.964609 
L 562.852727 131.431231 
L 569.209697 139.096429 
L 575.566667 126.956909 
L 581.923636 127.527632 
L 588.280606 130.011407 
L 594.637576 118.378026 
L 600.994545 124.135808 
L 607.351515 109.625887 
L 613.708485 116.394147 
L 620.065455 117.598457 
L 626.422424 117.104268 
L 632.779394 104.611253 
L 639.136364 107.889064 
L 645.493333 106.408121 
L 651.850303 101.946772 
L 658.207273 100.835074 
L 664.564242 99.124539 
L 670.921212 106.252304 
L 677.278182 104.046416 
L 683.635152 99.459065 
L 689.992121 105.541117 
L 696.349091 98.462565 
L 702.706061 102.254211 
L 709.06303 104.668737 
L 715.42 98.556546 
L 721.77697 93.721924 
L 728.133939 102.49375 
L 734.490909 95.802452 
L 740.847879 101.594823 
L 747.204848 91.763979 
L 753.561818 93.965605 
L 759.918788 95.987661 
L 766.275758 94.456472 
L 772.632727 99.663935 
L 778.989697 107.366809 
L 785.346667 103.587382 
L 791.703636 102.307747 
L 798.060606 95.223378 
L 804.417576 93.310977 
L 810.774545 97.562689 
" clip-path="url(#pff58672c49)" style="fill: none; stroke: #2ca02c; stroke-width: 1.5; stroke-linecap: square"/>
   </g>
   <g id="line2d_66">
    <path d="M 553.317273 282.04 
L 553.317273 36.36 
" clip-path="url(#pff58672c49)" style="fill: none; stroke-dasharray: 3.7,1.6; stroke-dashoffset: 0; stroke: #808080"/>
   </g>
   <g id="patch_8">
    <path d="M 505.64 282.04 
L 505.64 36.36 
" style="fill: none; stroke: #000000; stroke-width: 0.8; stroke-linejoin: miter; stroke-linecap: square"/>
   </g>
   <g id="patch_9">
    <path d="M 925.2 282.04 
L 925.2 36.36 
" style="fill: none; stroke: #000000; stroke-width: 0.8; stroke-linejoin: miter; stroke-linecap: square"/>
   </g>
   <g id="patch_10">
    <path d="M 505.64 282.04 
L 925.2 282.04 
" style="fill: none; stroke: #000000; stroke-width: 0.8; stroke-linejoin: miter; stroke-linecap: square"/>
   </g>
   <g id="patch_11">
    <path d="M 505.64 36.36 
L 925.2 36.36 
" style="fill: none; stroke: #000000; stroke-width: 0.8; stroke-linejoin: miter; stroke-linecap: square"/>
   </g>
   <g id="PathCollection_1">
    <defs>
     <path id="mdc07a20891" d="M 0 2.54951 
C 0.676138 2.54951 1.324674 2.280877 1.802776 1.802776 
C 2.280877 1.324674 2.54951 0.676138 2.54951 0 
C 2.54951 -0.676138 2.280877 -1.324674 1.802776 -1.802776 
C 1.324674 -2.280877 0.676138 -2.54951 0 -2.54951 
C -0.676138 -2.54951 -1.324674 -2.280877 -1.802776 -1.802776 
C -2.280877 -1.324674 -2.54951 -0.676138 -2.54951 0 
C -2.54951 0.676138 -2.280877 1.324674 -1.802776 1.802776 
C -1.324674 2.280877 -0.676138 2.54951 0 2.54951 
z
" style="stroke: #1f77b4"/>
    </defs>
    <g clip-path="url(#pff58672c49)">
     <use xlink:href="#mdc07a20891" x="842.559394" y="86.496439" style="fill: #1f77b4; stroke: #1f77b4"/>
    </g>
   </g>
   <g id="PathCollection_2">
    <defs>
     <path id="m07aa64e44f" d="M 0 2.54951 
C 0.676138 2.54951 1.324674 2.280877 1.802776 1.802776 
C 2.280877 1.324674 2.54951 0.676138 2.54951 0 
C 2.54951 -0.676138 2.280877 -1.324674 1.802776 -1.802776 
C 1.324674 -2.280877 0.676138 -2.54951 0 -2.54951 
C -0.676138 -2.54951 -1.324674 -2.280877 -1.802776 -1.802776 
C -2.280877 -1.324674 -2.54951 -0.676138 -2.54951 0 
C -2.54951 0.676138 -2.280877 1.324674 -1.802776 1.802776 
C -1.324674 2.280877 -0.676138 2.54951 0 2.54951 
z
" style="stroke: #ff7f0e"/>
    </defs>
    <g clip-path="url(#pff58672c49)">
     <use xlink:href="#m07aa64e44f" x="670.921212" y="95.752368" style="fill: #ff7f0e; stroke: #ff7f0e"/>
    </g>
   </g>
   <g id="PathCollection_3">
    <defs>
     <path id="m8af3611fae" d="M 0 2.54951 
C 0.676138 2.54951 1.324674 2.280877 1.802776 1.802776 
C 2.280877 1.324674 2.54951 0.676138 2.54951 0 
C 2.54951 -0.676138 2.280877 -1.324674 1.802776 -1.802776 
C 1.324674 -2.280877 0.676138 -2.54951 0 -2.54951 
C -0.676138 -2.54951 -1.324674 -2.280877 -1.802776 -1.802776 
C -2.280877 -1.324674 -2.54951 -0.676138 -2.54951 0 
C -2.54951 0.676138 -2.280877 1.324674 -1.802776 1.802776 
C -1.324674 2.280877 -0.676138 2.54951 0 2.54951 
z
" style="stroke: #2ca02c"/>
    </defs>
    <g clip-path="url(#pff58672c49)">
     <use xlink:href="#m8af3611fae" x="747.204848" y="91.763979" style="fill: #2ca02c; stroke: #2ca02c"/>
    </g>
   </g>
   <g id="legend_1">
    <g id="patch_12">
     <path d="M 820.64625 278.04 
L 919.6 278.04 
Q 921.2 278.04 921.2 276.44 
L 921.2 241.345 
Q 921.2 239.745 919.6 239.745 
L 820.64625 239.745 
Q 819.04625 239.745 819.04625 241.345 
L 819.04625 276.44 
Q 819.04625 278.04 820.64625 278.04 
z
" style="fill: #ffffff; opacity: 0.8; stroke: #cccccc; stroke-linejoin: miter"/>
    </g>
    <g id="line2d_67">
     <path d="M 822.24625 246.22375 
L 830.24625 246.22375 
L 838.24625 246.22375 
" style="fill: none; stroke: #1f77b4; stroke-width: 1.5; stroke-linecap: square"/>
    </g>
    <g id="text_34">
     <!-- original_seed42 -->
     <g transform="translate(844.64625 249.02375) scale(0.08 -0.08)">
      <defs>
       <path id="DejaVuSans-67" d="M 2906 1791 
Q 2906 2416 2648 2759 
Q 2391 3103 1925 3103 
Q 1463 3103 1205 2759 
Q 947 2416 947 1791 
Q 947 1169 1205 825 
Q 1463 481 1925 481 
Q 2391 481 2648 825 
Q 2906 1169 2906 1791 
z
M 3481 434 
Q 3481 -459 3084 -895 
Q 2688 -1331 1869 -1331 
Q 1566 -1331 1297 -1286 
Q 1028 -1241 775 -1147 
L 775 -588 
Q 1028 -725 1275 -790 
Q 1522 -856 1778 -856 
Q 2344 -856 2625 -561 
Q 2906 -266 2906 331 
L 2906 616 
Q 2728 306 2450 153 
Q 2172 0 1784 0 
Q 1141 0 747 490 
Q 353 981 353 1791 
Q 353 2603 747 3093 
Q 1141 3584 1784 3584 
Q 2172 3584 2450 3431 
Q 2728 3278 2906 2969 
L 2906 3500 
L 3481 3500 
L 3481 434 
z
" transform="scale(0.015625)"/>
       <path id="DejaVuSans-5f" d="M 3263 -1063 
L 3263 -1509 
L -63 -1509 
L -63 -1063 
L 3263 -1063 
z
" transform="scale(0.015625)"/>
      </defs>
      <use xlink:href="#DejaVuSans-6f"/>
      <use xlink:href="#DejaVuSans-72" x="61.181641"/>
      <use xlink:href="#DejaVuSans-69" x="102.294922"/>
      <use xlink:href="#DejaVuSans-67" x="130.078125"/>
      <use xlink:href="#DejaVuSans-69" x="193.554688"/>
      <use xlink:href="#DejaVuSans-6e" x="221.337891"/>
      <use xlink:href="#DejaVuSans-61" x="284.716797"/>
      <use xlink:href="#DejaVuSans-6c" x="345.996094"/>
      <use xlink:href="#DejaVuSans-5f" x="373.779297"/>
      <use xlink:href="#DejaVuSans-73" x="423.779297"/>
      <use xlink:href="#DejaVuSans-65" x="475.878906"/>
      <use xlink:href="#DejaVuSans-65" x="537.402344"/>
      <use xlink:href="#DejaVuSans-64" x="598.925781"/>
      <use xlink:href="#DejaVuSans-34" x="662.402344"/>
      <use xlink:href="#DejaVuSans-32" x="726.025391"/>
     </g>
    </g>
    <g id="line2d_68">
     <path d="M 822.24625 258.18875 
L 830.24625 258.18875 
L 838.24625 258.18875 
" style="fill: none; stroke: #ff7f0e; stroke-width: 1.5; stroke-linecap: square"/>
    </g>
    <g id="text_35">
     <!-- original_seed123 -->
     <g transform="translate(844.64625 260.98875) scale(0.08 -0.08)">
      <use xlink:href="#DejaVuSans-6f"/>
      <use xlink:href="#DejaVuSans-72" x="61.181641"/>
      <use xlink:href="#DejaVuSans-69" x="102.294922"/>
      <use xlink:href="#DejaVuSans-67" x="130.078125"/>
      <use xlink:href="#DejaVuSans-69" x="193.554688"/>
      <use xlink:href="#DejaVuSans-6e" x="221.337891"/>
      <use xlink:href="#DejaVuSans-61" x="284.716797"/>
      <use xlink:href="#DejaVuSans-6c" x="345.996094"/>
      <use xlink:href="#DejaVuSans-5f" x="373.779297"/>
      <use xlink:href="#DejaVuSans-73" x="423.779297"/>
      <use xlink:href="#DejaVuSans-65" x="475.878906"/>
      <use xlink:href="#DejaVuSans-65" x="537.402344"/>
      <use xlink:href="#DejaVuSans-64" x="598.925781"/>
      <use xlink:href="#DejaVuSans-31" x="662.402344"/>
      <use xlink:href="#DejaVuSans-32" x="726.025391"/>
      <use xlink:href="#DejaVuSans-33" x="789.648438"/>
     </g>
    </g>
    <g id="line2d_69">
     <path d="M 822.24625 270.15375 
L 830.24625 270.15375 
L 838.24625 270.15375 
" style="fill: none; stroke: #2ca02c; stroke-width: 1.5; stroke-linecap: square"/>
    </g>
    <g id="text_36">
     <!-- original_seed2026 -->
     <g transform="translate(844.64625 272.95375) scale(0.08 -0.08)">
      <use xlink:href="#DejaVuSans-6f"/>
      <use xlink:href="#DejaVuSans-72" x="61.181641"/>
      <use xlink:href="#DejaVuSans-69" x="102.294922"/>
      <use xlink:href="#DejaVuSans-67" x="130.078125"/>
      <use xlink:href="#DejaVuSans-69" x="193.554688"/>
      <use xlink:href="#DejaVuSans-6e" x="221.337891"/>
      <use xlink:href="#DejaVuSans-61" x="284.716797"/>
      <use xlink:href="#DejaVuSans-6c" x="345.996094"/>
      <use xlink:href="#DejaVuSans-5f" x="373.779297"/>
      <use xlink:href="#DejaVuSans-73" x="423.779297"/>
      <use xlink:href="#DejaVuSans-65" x="475.878906"/>
      <use xlink:href="#DejaVuSans-65" x="537.402344"/>
      <use xlink:href="#DejaVuSans-64" x="598.925781"/>
      <use xlink:href="#DejaVuSans-32" x="662.402344"/>
      <use xlink:href="#DejaVuSans-30" x="726.025391"/>
      <use xlink:href="#DejaVuSans-32" x="789.648438"/>
      <use xlink:href="#DejaVuSans-36" x="853.271484"/>
     </g>
    </g>
   </g>
  </g>
  <g id="text_37">
   <!-- Original Uni-AdaFocus: three seeds -->
   <g transform="translate(362.957812 15.598125) scale(0.12 -0.12)">
    <defs>
     <path id="DejaVuSans-55" d="M 556 4666 
L 1191 4666 
L 1191 1831 
Q 1191 1081 1462 751 
Q 1734 422 2344 422 
Q 2950 422 3222 751 
Q 3494 1081 3494 1831 
L 3494 4666 
L 4128 4666 
L 4128 1753 
Q 4128 841 3676 375 
Q 3225 -91 2344 -91 
Q 1459 -91 1007 375 
Q 556 841 556 1753 
L 556 4666 
z
" transform="scale(0.015625)"/>
     <path id="DejaVuSans-41" d="M 2188 4044 
L 1331 1722 
L 3047 1722 
L 2188 4044 
z
M 1831 4666 
L 2547 4666 
L 4325 0 
L 3669 0 
L 3244 1197 
L 1141 1197 
L 716 0 
L 50 0 
L 1831 4666 
z
" transform="scale(0.015625)"/>
     <path id="DejaVuSans-3a" d="M 750 794 
L 1409 794 
L 1409 0 
L 750 0 
L 750 794 
z
M 750 3309 
L 1409 3309 
L 1409 2516 
L 750 2516 
L 750 3309 
z
" transform="scale(0.015625)"/>
    </defs>
    <use xlink:href="#DejaVuSans-4f"/>
    <use xlink:href="#DejaVuSans-72" x="78.710938"/>
    <use xlink:href="#DejaVuSans-69" x="119.824219"/>
    <use xlink:href="#DejaVuSans-67" x="147.607422"/>
    <use xlink:href="#DejaVuSans-69" x="211.083984"/>
    <use xlink:href="#DejaVuSans-6e" x="238.867188"/>
    <use xlink:href="#DejaVuSans-61" x="302.246094"/>
    <use xlink:href="#DejaVuSans-6c" x="363.525391"/>
    <use xlink:href="#DejaVuSans-20" x="391.308594"/>
    <use xlink:href="#DejaVuSans-55" x="423.095703"/>
    <use xlink:href="#DejaVuSans-6e" x="496.289062"/>
    <use xlink:href="#DejaVuSans-69" x="559.667969"/>
    <use xlink:href="#DejaVuSans-2d" x="587.451172"/>
    <use xlink:href="#DejaVuSans-41" x="621.285156"/>
    <use xlink:href="#DejaVuSans-64" x="687.943359"/>
    <use xlink:href="#DejaVuSans-61" x="751.419922"/>
    <use xlink:href="#DejaVuSans-46" x="812.699219"/>
    <use xlink:href="#DejaVuSans-6f" x="866.59375"/>
    <use xlink:href="#DejaVuSans-63" x="927.775391"/>
    <use xlink:href="#DejaVuSans-75" x="982.755859"/>
    <use xlink:href="#DejaVuSans-73" x="1046.134766"/>
    <use xlink:href="#DejaVuSans-3a" x="1098.234375"/>
    <use xlink:href="#DejaVuSans-20" x="1131.925781"/>
    <use xlink:href="#DejaVuSans-74" x="1163.712891"/>
    <use xlink:href="#DejaVuSans-68" x="1202.921875"/>
    <use xlink:href="#DejaVuSans-72" x="1266.300781"/>
    <use xlink:href="#DejaVuSans-65" x="1305.164062"/>
    <use xlink:href="#DejaVuSans-65" x="1366.6875"/>
    <use xlink:href="#DejaVuSans-20" x="1428.210938"/>
    <use xlink:href="#DejaVuSans-73" x="1459.998047"/>
    <use xlink:href="#DejaVuSans-65" x="1512.097656"/>
    <use xlink:href="#DejaVuSans-65" x="1573.621094"/>
    <use xlink:href="#DejaVuSans-64" x="1635.144531"/>
    <use xlink:href="#DejaVuSans-73" x="1698.621094"/>
   </g>
  </g>
 </g>
 <defs>
  <clipPath id="pdb8fb2e3b4">
   <rect x="38.27" y="36.36" width="419.56" height="245.68"/>
  </clipPath>
  <clipPath id="pff58672c49">
   <rect x="505.64" y="36.36" width="419.56" height="245.68"/>
  </clipPath>
 </defs>
</svg>
